<svg version="1.1" id="Layer_1" xmlns="http://www.w3.org/2000/svg" xmlns:xlink="http://www.w3.org/1999/xlink" x="0px" y="0px"
	 width="100%" viewBox="0 0 2048 2054" enable-background="new 0 0 2048 2054" xml:space="preserve">
<path fill="none" opacity="1.000000" stroke="#000000" stroke-linecap="round" stroke-linejoin="round" stroke-width="6.000000"
	d="
M1468.000000,1653.000000 
	C1461.116577,1656.807983 1453.490601,1656.981934 1446.000854,1656.912842 
	C1429.245605,1656.758423 1412.663818,1658.969604 1396.006592,1660.097168 
	C1392.051636,1660.364746 1388.246948,1659.384033 1386.140991,1656.881348 
	C1368.188354,1635.546387 1346.902954,1617.394287 1328.851562,1596.125977 
	C1316.969604,1582.126587 1303.335815,1569.629028 1291.085449,1555.923584 
	C1276.457886,1539.558716 1259.784546,1525.165283 1245.880737,1508.097168 
	C1241.304932,1502.479980 1235.230591,1498.104492 1230.017578,1492.982178 
	C1205.447876,1468.839722 1182.260376,1443.392090 1158.862671,1418.127197 
	C1144.945679,1403.099609 1129.600342,1389.400391 1115.019653,1374.980103 
	C1101.914917,1362.019653 1089.495483,1348.492065 1077.754639,1334.201538 
	C1066.416504,1320.401367 1052.825195,1308.516357 1040.650024,1295.322998 
	C1026.742676,1280.252441 1013.276184,1264.741089 998.974976,1250.024292 
	C995.797058,1246.754028 992.671936,1243.639771 988.050964,1241.867065 
	C970.037048,1234.956177 961.133057,1247.798828 960.206360,1263.012573 
	C958.440247,1292.008789 960.268066,1321.000000 961.680603,1350.015503 
	C962.701050,1370.976562 964.134888,1391.947998 964.250916,1412.998657 
	C964.403259,1440.664917 965.297729,1468.327515 964.500000,1496.000000 
"/>
<path fill="none" opacity="1.000000" stroke="#000000" stroke-linecap="round" stroke-linejoin="round" stroke-width="6.000000"
	d="
M1002.000000,1046.000000 
	C1011.578979,1039.233521 1017.522400,1029.411133 1024.029297,1020.020264 
	C1035.546143,1003.399109 1048.432251,987.814392 1060.720215,971.785522 
	C1078.365967,948.767822 1096.859619,926.418518 1114.136597,903.101196 
	C1134.217041,876.000183 1155.408447,849.724487 1175.981812,822.985962 
	C1204.239380,786.260559 1234.044922,750.774353 1261.329956,713.239868 
	C1279.291748,688.530884 1297.229858,663.578552 1318.207153,641.194153 
	C1320.378174,638.877502 1321.031250,635.934875 1322.508057,633.678040 
	C1332.538208,618.350464 1348.143311,618.620605 1363.005737,618.204468 
	C1392.997803,617.364624 1422.969604,615.551270 1453.001343,615.879272 
	C1460.319824,615.959167 1467.500610,613.391357 1475.007202,613.892883 
	C1480.377075,614.251770 1485.476074,615.167725 1489.966431,618.052307 
	C1495.373169,621.525391 1496.953125,625.302185 1496.732422,633.020935 
	C1496.264893,649.377563 1487.720459,659.855469 1478.171387,671.145020 
	C1467.426514,683.848206 1457.817993,697.534607 1448.035767,711.026001 
	C1423.328125,745.102539 1396.142700,777.285034 1371.203247,811.149658 
	C1350.872437,838.756531 1328.427124,864.668945 1308.670410,892.768250 
	C1289.867554,919.510986 1267.707397,943.868835 1248.202148,970.149963 
	C1233.145386,990.437012 1218.625610,1011.208801 1202.729248,1030.780151 
	C1182.365601,1055.851685 1164.019409,1082.445068 1143.148438,1107.125610 
	C1126.453003,1126.868408 1112.285156,1148.662720 1095.084961,1168.075195 
	C1089.164551,1174.756958 1089.407959,1182.957397 1095.045288,1190.968140 
	C1105.026611,1205.151978 1117.896118,1216.737549 1130.006348,1228.993774 
	C1142.432739,1241.570190 1155.167358,1253.823242 1167.080078,1266.927246 
	C1186.114624,1287.865479 1205.862183,1308.154907 1224.932617,1329.061401 
	C1238.129150,1343.528442 1252.480469,1356.873413 1265.131592,1371.889038 
	C1275.144531,1383.773315 1286.065308,1394.934204 1297.056519,1405.943604 
	C1319.063354,1427.987183 1340.732666,1450.301392 1361.146362,1473.873169 
	C1373.008423,1487.570068 1387.050781,1499.384888 1398.841309,1513.136108 
	C1419.447754,1537.168945 1444.551147,1557.168091 1462.088379,1583.942017 
	C1463.984375,1586.836426 1467.291626,1588.739502 1469.902466,1591.107544 
	C1492.825195,1611.897705 1511.453247,1636.827637 1534.023438,1657.974976 
	C1536.526123,1660.319824 1537.009155,1664.076538 1540.000000,1666.000000 
"/>
<path fill="none" opacity="1.000000" stroke="#000000" stroke-linecap="round" stroke-linejoin="round" stroke-width="6.000000"
	d="
M381.000000,668.000000 
	C384.666656,669.333374 388.356689,670.606384 391.993774,672.016052 
	C396.083557,673.601257 399.585236,675.554565 399.065216,681.006226 
	C398.667389,685.176575 401.650665,688.263489 404.100220,690.907166 
	C416.968140,704.794617 429.318420,719.170654 440.852020,734.114197 
	C467.061066,768.071960 496.020630,799.718689 522.829834,833.136475 
	C539.135193,853.460999 557.076355,872.370789 573.393311,892.491943 
	C586.663269,908.855713 600.587646,924.841797 613.324646,941.755554 
	C627.924561,961.143250 644.390930,979.250671 661.213928,996.794861 
	C672.447632,1008.510193 681.657471,1021.714294 691.725159,1034.221191 
	C708.212158,1054.703003 727.712219,1072.555908 742.978638,1094.015137 
	C760.871765,1119.166626 782.106689,1141.521484 801.987549,1165.010498 
	C804.744324,1168.267700 807.379089,1171.631226 809.989502,1175.008057 
	C814.140076,1180.377441 815.188049,1190.987549 809.838684,1197.874634 
	C804.225891,1205.100952 797.870911,1211.968628 790.893311,1217.873901 
	C773.925598,1232.234009 761.155701,1250.219971 747.127502,1267.105957 
	C743.621399,1271.326294 739.196228,1274.638306 736.061157,1279.043579 
	C724.904480,1294.719849 711.640259,1308.582642 699.221497,1323.188354 
	C680.847107,1344.798584 661.587463,1365.697144 643.549500,1387.455566 
	C621.038269,1414.610107 596.226868,1439.709106 574.661255,1467.739380 
	C554.237366,1494.285400 530.994873,1518.662231 509.001404,1544.001221 
	C481.861542,1575.269287 454.548248,1606.379761 428.821960,1638.859009 
	C422.953186,1646.268188 417.321289,1653.940063 410.951202,1660.955688 
	C407.714813,1664.519775 406.198334,1668.921265 404.000000,1673.000000 
"/>
<path fill="none" opacity="1.000000" stroke="#000000" stroke-linecap="round" stroke-linejoin="round" stroke-width="6.000000"
	d="
M858.000000,1301.000000 
	C857.738098,1308.369019 855.016602,1314.883545 848.918640,1318.875732 
	C838.477356,1325.711182 834.585205,1337.616699 826.453186,1346.418701 
	C806.126282,1368.420288 785.493286,1390.195312 765.865051,1412.883179 
	C735.893555,1447.526855 704.971619,1481.400391 675.464783,1516.391968 
	C655.782532,1539.732666 634.913696,1561.959961 615.376404,1585.314819 
	C602.625305,1600.557617 589.858459,1616.055664 576.422424,1630.461304 
	C561.469727,1646.493530 548.079590,1663.971558 532.165771,1679.173584 
	C524.858459,1686.153931 518.726257,1694.603638 513.172302,1703.112427 
	C507.724426,1711.458984 499.643219,1714.794434 490.975220,1715.782837 
	C467.404907,1718.470215 443.720642,1719.086182 419.989044,1717.133179 
	C413.394470,1716.590576 406.668732,1717.893921 399.999573,1717.954468 
	C384.334229,1718.096802 368.666656,1718.009521 353.000000,1717.997559 
	C334.827606,1717.983643 326.919067,1704.050903 336.020599,1688.011719 
	C338.030212,1684.470459 340.087524,1681.053223 342.894775,1677.906128 
	C361.763824,1656.753296 379.854187,1634.886108 399.186554,1614.174194 
	C410.114502,1602.466431 419.419312,1589.600952 428.718292,1576.795410 
	C435.648956,1567.251221 445.188446,1560.506226 452.108307,1551.079468 
	C469.625214,1527.216675 492.128479,1507.485596 509.701721,1483.778931 
	C522.890686,1465.986816 539.105469,1451.014282 552.513367,1433.390625 
	C563.663574,1418.734619 578.089294,1406.361328 589.986145,1391.988525 
	C608.069153,1370.141846 627.160706,1349.159546 645.643188,1327.692749 
	C678.486145,1289.546875 711.169556,1251.281616 744.918823,1213.926636 
	C750.166504,1208.118286 754.086670,1201.131226 759.065186,1195.053467 
	C764.712708,1188.158936 762.440308,1181.540283 757.873291,1176.106445 
	C737.961182,1152.415283 717.104614,1129.484741 697.374512,1105.689453 
	C682.716064,1088.010864 668.432983,1069.778198 653.442627,1052.483154 
	C637.817688,1034.455811 623.053345,1015.663147 607.389404,997.661194 
	C596.709839,985.387573 586.555481,972.415344 575.783997,960.190308 
	C550.735657,931.761780 527.855042,901.573059 503.106293,872.908203 
	C468.020294,832.270264 433.455292,791.176147 399.084534,749.929565 
	C380.450470,727.567749 363.073639,704.116882 342.852753,683.141968 
	C334.111115,674.074280 334.138489,662.720276 332.308167,651.947632 
	C331.171356,645.257019 343.202087,637.386536 354.002838,637.111816 
	C362.655426,636.891785 371.340088,638.070312 379.998749,637.925781 
	C408.002075,637.458191 435.999390,636.639709 464.000458,636.020630 
	C470.330719,635.880615 476.754639,635.330994 482.980316,636.149780 
	C493.490906,637.532104 502.602936,643.318176 508.734192,651.206604 
	C522.563232,668.999023 538.279114,685.127991 552.171936,702.865356 
	C573.352783,729.907532 596.278687,755.555298 617.103210,782.921448 
	C624.518066,792.665588 633.930054,800.757568 642.268127,809.751465 
	C660.298401,829.200012 676.786499,849.959961 693.641907,870.296814 
	C726.712585,910.198181 760.072021,949.840820 794.118774,988.896484 
	C808.307190,1005.172363 820.005493,1023.427917 835.036865,1038.964355 
	C837.670288,1041.686157 839.059509,1046.161621 844.000000,1046.000000 
"/>
<path fill="none" opacity="1.000000" stroke="#000000" stroke-linecap="round" stroke-linejoin="round" stroke-width="6.000000"
	d="
M906.000000,1695.000000 
	C903.779785,1677.034912 905.487610,1658.997925 905.023071,1640.999390 
	C903.990662,1601.000244 902.841797,1560.988159 901.474670,1521.017944 
	C900.322815,1487.344360 899.606689,1453.682129 898.849731,1420.003418 
	C898.130127,1387.987671 898.471802,1355.997559 898.418274,1324.000977 
	C898.390076,1307.151245 900.475647,1289.832031 895.486450,1272.857056 
	C894.156128,1268.330566 895.647766,1262.312134 894.048157,1256.985596 
	C889.331543,1241.279419 875.136353,1236.482788 862.106262,1247.130005 
	C851.597839,1255.716675 843.675842,1266.848389 836.089539,1278.060547 
	C835.022583,1279.637451 834.705139,1281.884399 832.979736,1282.967773 
	C818.258911,1292.212036 810.918640,1308.168823 799.109375,1320.108154 
	C776.809570,1342.653442 759.576782,1369.708130 736.892517,1391.890015 
	C713.027588,1415.226318 691.216309,1440.417847 670.294617,1466.238770 
	C650.902039,1490.172363 628.644409,1511.355591 608.672607,1534.720215 
	C587.218079,1559.819458 564.420776,1583.873169 543.293884,1609.244751 
	C525.576355,1630.521851 506.195099,1650.332397 489.138092,1672.108154 
	C481.569885,1681.770264 471.360474,1677.215820 462.988312,1677.371582 
	C449.407654,1677.624146 435.663879,1677.454712 421.999634,1677.011230 
	C416.925629,1676.846436 411.714508,1677.689209 407.005035,1674.991211 
	C400.358276,1671.183350 396.768524,1679.407471 391.000000,1679.000000 
"/>
<path fill="none" opacity="1.000000" stroke="#000000" stroke-linecap="round" stroke-linejoin="round" stroke-width="6.000000"
	d="
M1485.000000,1658.000000 
	C1477.451538,1656.867188 1471.430054,1654.018066 1466.800293,1647.134277 
	C1460.606689,1637.925293 1453.387207,1629.316528 1445.927490,1621.065552 
	C1423.461914,1596.217041 1401.287476,1571.055542 1377.800049,1547.196899 
	C1359.618042,1528.727783 1341.448853,1510.155396 1323.480225,1491.536621 
	C1303.707275,1471.048462 1285.418457,1448.966553 1266.048218,1427.955566 
	C1242.067627,1401.943726 1215.978516,1377.923828 1192.312012,1351.718140 
	C1167.952148,1324.744629 1143.073608,1298.232300 1118.713501,1271.258667 
	C1099.318848,1249.783203 1081.811401,1226.312378 1058.124390,1208.831421 
	C1051.964233,1204.285156 1047.053589,1197.899780 1042.080811,1191.932617 
	C1037.356567,1186.264038 1039.641357,1172.818726 1045.993896,1164.994995 
	C1061.679321,1145.676880 1078.068359,1126.870117 1092.725952,1106.799805 
	C1101.597778,1094.651855 1110.204834,1082.242798 1118.867676,1069.907104 
	C1129.136108,1055.285278 1141.622070,1042.533447 1152.390015,1028.294922 
	C1165.402100,1011.089111 1177.001343,992.804016 1191.759033,976.778076 
	C1204.906128,962.501038 1216.629272,946.776855 1227.833252,930.882385 
	C1240.483643,912.936096 1254.847534,896.329956 1267.458374,878.320923 
	C1274.002197,868.976013 1282.019897,860.311707 1289.248047,851.196716 
	C1301.126831,836.217224 1311.852661,820.424744 1323.430054,805.329895 
	C1337.127930,787.470337 1351.098022,769.737671 1364.889282,751.914307 
	C1376.430176,736.999451 1387.475830,721.670166 1398.502197,706.361755 
	C1406.983398,694.586914 1415.744751,682.554443 1426.057129,672.056091 
	C1430.572021,667.459717 1432.710693,662.349854 1432.000000,656.000000 
"/>
<path fill="none" opacity="1.000000" stroke="#000000" stroke-linecap="round" stroke-linejoin="round" stroke-width="6.000000"
	d="
M1000.000000,1299.000000 
	C999.924683,1307.127319 1003.571594,1314.268433 1010.184387,1317.638184 
	C1017.251648,1321.239502 1019.404236,1327.961670 1023.903992,1333.084351 
	C1036.846313,1347.818115 1051.104248,1361.228638 1065.026367,1374.973267 
	C1104.134399,1413.582520 1140.206665,1455.100708 1179.089600,1493.910278 
	C1192.830200,1507.625000 1204.353516,1523.247314 1217.983643,1537.016235 
	C1238.380127,1557.620361 1259.116333,1577.915283 1278.850220,1599.139282 
	C1293.310303,1614.690674 1308.981323,1629.014648 1323.160278,1644.856567 
	C1335.263428,1658.379517 1348.615356,1670.802124 1359.965820,1685.027222 
	C1368.278442,1695.445312 1379.264893,1698.343872 1392.001831,1698.089111 
	C1412.999023,1697.669189 1433.998413,1697.958252 1455.005127,1697.129883 
	C1478.676270,1696.196289 1502.242798,1693.469238 1526.002808,1693.797852 
	C1537.192139,1693.952759 1543.629883,1684.137329 1540.917114,1673.020264 
	C1540.111816,1669.720215 1538.788940,1666.780518 1543.000000,1665.000000 
"/>
<path fill="none" opacity="1.000000" stroke="#000000" stroke-linecap="round" stroke-linejoin="round" stroke-width="6.000000"
	d="
M564.500000,600.000000 
	C561.129089,589.237183 564.650269,577.278076 558.240173,566.852356 
	C556.370056,563.810730 557.477051,558.967957 557.205627,554.985962 
	C554.594177,516.676086 553.305969,478.350433 556.924377,439.992859 
	C558.760803,420.526184 563.039856,401.339722 564.632019,381.969757 
	C567.280029,349.756622 573.056396,317.416107 567.794617,285.033386 
	C564.703552,266.009613 558.729736,257.065826 536.001587,256.839386 
	C523.567932,256.715515 511.114105,257.020599 499.061554,259.322357 
	C488.267944,261.383636 478.828491,267.922852 468.941345,272.883087 
	C447.018921,283.881256 426.243225,296.883850 408.262756,313.287994 
	C389.928101,330.015259 374.508911,349.684662 363.019073,372.009827 
	C354.772522,388.033295 346.241699,403.921204 342.930908,421.987335 
	C340.765594,433.802979 341.978363,445.486176 344.218414,456.957336 
	C345.736694,464.732269 352.642548,467.457947 360.004303,467.933167 
	C365.315521,468.276001 370.666656,467.995178 376.000000,468.000946 
	C387.688782,468.013611 389.875916,469.959930 394.000000,484.000000 
	C395.765839,490.011688 392.203430,499.448975 385.936829,502.884766 
	C379.205170,506.575592 372.246918,510.211761 363.996765,509.022461 
	C353.241791,507.472137 342.275299,508.949677 331.876801,503.223724 
	C315.980560,494.470367 309.926941,480.101501 304.798645,464.064392 
	C299.059540,446.117249 300.370880,427.797302 305.652161,411.207611 
	C313.216400,387.446533 319.902588,363.294373 334.428070,341.616760 
	C351.048401,316.812897 370.742584,295.160187 392.398468,275.437531 
	C404.612549,264.313843 418.257141,253.556641 434.041382,247.101181 
	C456.210999,238.034210 478.264313,228.346603 501.116272,221.381424 
	C522.784729,214.776947 545.447021,216.347214 568.022949,218.787872 
	C599.137939,222.151688 626.311035,233.148743 647.894348,256.099365 
	C655.739990,264.442078 662.412537,273.798370 668.162659,283.907471 
	C676.078308,297.823700 682.029602,312.612335 684.614380,328.064514 
	C687.575806,345.768402 687.436768,364.156250 685.492126,381.944489 
	C684.143616,394.279388 685.376526,406.852051 682.064636,419.017609 
	C679.125366,429.814575 679.625183,440.987640 680.122314,451.994476 
	C680.734253,465.543732 684.505127,477.134552 698.883423,483.273041 
	C707.424683,486.919525 714.961792,484.330475 721.868896,481.660797 
	C734.965210,476.598938 744.791504,466.684143 754.155884,456.138428 
	C767.421753,441.199219 777.830811,424.544250 786.956665,406.977509 
	C794.920166,391.648468 802.505554,376.226807 806.225342,359.048798 
	C808.305176,349.444031 812.790161,340.375122 815.966675,330.988708 
	C819.426880,320.763794 822.462585,310.411224 827.887878,300.935791 
	C829.162964,298.708679 827.369934,296.586090 825.000000,295.500000 
"/>
<path fill="none" opacity="1.000000" stroke="#000000" stroke-linecap="round" stroke-linejoin="round" stroke-width="5.000000"
	d="
M1449.000000,647.000000 
	C1433.730591,656.183350 1416.756104,655.192932 1400.001343,654.917358 
	C1387.967773,654.719482 1376.130005,657.279602 1363.977051,656.278931 
	C1356.208862,655.639282 1351.232422,662.625183 1347.158447,668.117554 
	C1321.400879,702.843872 1294.421265,736.573425 1267.279785,770.225647 
	C1247.886597,794.270935 1230.082275,819.644165 1211.043457,844.033936 
	C1192.296265,868.049988 1174.386841,892.745239 1155.638184,916.717041 
	C1135.472778,942.500549 1115.507935,968.470093 1095.095703,994.076294 
	C1075.982056,1018.053345 1058.328613,1043.215942 1038.758667,1066.799683 
	C1026.470825,1081.608032 1015.464050,1097.363403 1003.399292,1112.322021 
	C994.639954,1123.182251 985.549011,1125.011475 974.045654,1120.873047 
	C963.171082,1116.960815 960.975281,1106.378906 960.263428,1096.980103 
	C957.134460,1055.669922 960.258301,1014.329712 961.016174,973.000305 
	C961.280823,958.569824 956.503845,944.565063 957.910400,929.991333 
	C959.582703,912.663574 956.720032,895.345154 957.000000,878.000000 
"/>
<path fill="none" opacity="1.000000" stroke="#000000" stroke-linecap="round" stroke-linejoin="round" stroke-width="5.000000"
	d="
M400.000000,676.000000 
	C407.101715,674.197327 414.403870,676.261841 420.962402,676.012268 
	C432.574677,675.570374 444.639923,677.169922 455.922272,674.651733 
	C468.987152,671.735657 477.743408,676.954895 484.892120,686.084473 
	C500.516510,706.038269 517.714539,724.662170 533.693054,744.250427 
	C554.494629,769.751343 578.050476,792.862549 597.887329,819.085205 
	C623.062134,852.364197 651.558716,882.810547 678.047363,914.960938 
	C704.832520,947.471313 731.795105,979.840881 759.087830,1011.925293 
	C772.417297,1027.595093 785.869812,1043.157959 799.033813,1058.971802 
	C815.225586,1078.423096 832.118835,1097.307739 847.847351,1117.121216 
	C859.075134,1131.264893 881.290955,1124.331177 887.054321,1109.020508 
	C889.509460,1102.498413 890.094788,1095.900269 890.084595,1088.999878 
	C890.052002,1066.907593 886.400391,1045.070801 885.918335,1023.001770 
	C885.088196,985.003418 884.360596,947.005615 883.702148,909.005188 
	C882.980225,867.340515 880.804382,825.666931 881.275757,784.003113 
	C881.604675,754.931152 879.751648,725.986572 879.414795,696.995178 
	C879.238953,681.857910 881.960327,666.544006 887.760498,651.905090 
	C892.595764,639.701477 894.344666,626.264893 899.282654,614.114868 
	C904.061768,602.355652 904.095825,589.776855 907.984375,577.994812 
	C909.912109,572.153870 912.256287,566.510925 914.939697,560.970764 
	C916.916443,556.889709 918.179443,552.582336 919.195190,548.043701 
	C922.886292,531.550476 926.242188,514.858521 935.000000,500.000000 
"/>
<path fill="none" opacity="1.000000" stroke="#000000" stroke-linecap="round" stroke-linejoin="round" stroke-width="7.000000"
	d="
M1869.000000,147.500000 
	C1870.502319,148.004532 1871.917969,149.235916 1872.073608,146.003540 
	C1873.209595,122.405548 1865.825439,101.318153 1852.904663,82.063934 
	C1846.066650,71.873970 1834.230713,68.105202 1823.863281,63.294613 
	C1808.258789,56.054008 1791.445801,51.389160 1774.010010,52.212009 
	C1762.290771,52.765079 1750.705688,55.709953 1738.992065,56.923706 
	C1712.435669,59.675491 1688.680542,71.109154 1663.835205,79.512749 
	C1637.819336,88.312195 1613.837524,100.239815 1591.013306,115.020485 
	C1566.387817,130.967514 1543.070190,148.555817 1520.754028,167.713409 
	C1505.828491,180.526428 1491.662598,193.980820 1478.101440,208.097427 
	C1467.968384,218.645599 1458.694458,230.143646 1448.572510,240.585663 
	C1440.848267,248.554169 1433.213745,256.559418 1425.950684,264.957397 
	C1424.117432,267.077301 1423.070435,269.368530 1422.500000,272.000000 
"/>
<path fill="none" opacity="1.000000" stroke="#000000" stroke-linecap="round" stroke-linejoin="round" stroke-width="8.000000"
	d="
M877.000000,534.000000 
	C885.459351,533.126038 889.140991,526.335571 890.676575,519.922546 
	C893.543152,507.950897 899.906799,497.779602 905.153076,487.075012 
	C911.577881,473.965607 917.842529,460.610596 925.367920,448.223541 
	C934.787598,432.718567 946.353271,418.476318 956.017639,403.011017 
	C962.927002,391.954376 971.020691,381.504089 976.760742,369.881836 
	C985.357178,352.476044 994.198853,334.740356 998.380859,315.862854 
	C1000.691284,305.433350 1004.390381,294.547485 1002.353821,282.937927 
	C1001.223389,276.493103 998.334167,273.080902 993.005249,273.212280 
	C977.322693,273.598877 961.172852,269.944427 946.045349,276.111267 
	C920.413513,286.560364 898.029114,301.385986 880.818542,323.861023 
	C867.308838,341.503143 855.393005,359.905518 845.985596,379.993256 
	C839.162231,394.562988 833.802185,409.640900 828.751526,424.917847 
	C825.522217,434.685822 820.352295,443.963013 818.141296,454.031036 
	C809.365540,493.993652 791.920410,530.869995 778.018005,569.006531 
	C768.943909,593.898193 759.654480,618.611633 745.092468,641.059998 
	C730.201721,664.015076 709.533997,680.533386 685.740845,692.484009 
	C675.378235,697.688843 661.796265,696.763489 650.053101,695.504578 
	C637.212830,694.127930 624.305115,691.672302 612.733643,683.371277 
	C600.519287,674.609070 592.887207,662.862244 585.086060,650.943665 
	C576.741821,638.195190 572.280334,623.832520 568.698486,609.073181 
	C567.964722,606.049805 567.707275,599.626038 561.000000,601.000000 
"/>
<path fill="none" opacity="1.000000" stroke="#000000" stroke-linecap="round" stroke-linejoin="round" stroke-width="6.000000"
	d="
M1789.000000,96.000000 
	C1770.106201,92.265404 1756.002686,100.076080 1743.913574,113.924606 
	C1734.774536,124.393677 1723.513794,132.934280 1715.048706,144.037125 
	C1696.256226,168.685577 1683.032227,196.596954 1669.067505,224.034378 
	C1660.750000,240.376266 1649.114136,255.257645 1644.260742,273.071045 
	C1638.801025,293.110107 1628.635132,310.991913 1621.201172,330.078369 
	C1618.967896,335.812256 1613.043335,338.807190 1611.985596,344.997528 
	C1611.198120,349.607056 1610.326050,352.977692 1616.873779,355.348480 
	C1626.206421,358.727600 1635.483276,357.494965 1643.903809,355.577454 
	C1662.876953,351.256989 1681.786865,345.807892 1699.852417,338.628571 
	C1713.596191,333.166748 1726.832397,325.471344 1738.796265,316.721344 
	C1754.958374,304.900726 1770.733398,292.118469 1782.917358,275.937744 
	C1806.469971,244.658615 1826.810791,211.737381 1833.046387,172.007278 
	C1835.896729,153.845963 1834.251465,136.153778 1827.903931,119.035645 
	C1823.195557,106.338562 1811.354370,102.132217 1799.927124,98.212540 
	C1796.870972,97.164284 1793.724487,94.710670 1790.000000,96.000000 
"/>
<path fill="none" opacity="1.000000" stroke="#000000" stroke-linecap="round" stroke-linejoin="round" stroke-width="6.000000"
	d="
M1711.000000,99.000000 
	C1703.486450,98.844978 1701.243652,107.123161 1692.743042,108.737137 
	C1682.831055,106.643028 1673.832764,114.008598 1663.977295,118.954742 
	C1649.423462,126.258827 1636.979004,136.854080 1622.946655,144.906967 
	C1611.440552,151.510086 1599.160889,156.508453 1587.765137,163.623871 
	C1573.036011,172.820709 1560.426270,184.398758 1547.122070,195.151093 
	C1519.550659,217.433975 1495.234375,243.226120 1471.186890,269.173157 
	C1466.591187,274.131683 1462.934692,280.300537 1459.093140,286.062073 
	C1455.065430,292.102814 1457.435791,296.387756 1462.852295,301.167389 
	C1486.471313,322.009216 1512.767700,337.768616 1542.923096,347.244598 
	C1547.259033,348.607117 1551.679199,349.644836 1556.022949,350.921753 
	C1569.417725,354.859253 1572.637085,352.950317 1577.030640,340.010406 
	C1582.906128,322.706635 1587.825195,305.060455 1596.932617,288.961853 
	C1607.184448,270.840546 1611.903931,250.168869 1622.110718,232.062393 
	C1636.769409,206.058060 1644.659058,176.557129 1665.564453,153.603333 
	C1674.525513,143.764236 1681.407715,131.684036 1690.997192,121.997231 
	C1694.058472,118.905060 1694.017822,114.944267 1694.000000,111.000000 
"/>
<path fill="none" opacity="1.000000" stroke="#000000" stroke-linecap="round" stroke-linejoin="round" stroke-width="7.000000"
	d="
M1872.000000,149.000000 
	C1875.656860,157.999252 1871.544434,166.512909 1869.822510,174.963837 
	C1865.816650,194.623184 1862.318237,214.441254 1854.074341,233.032990 
	C1843.961182,255.840118 1830.567993,276.449158 1813.967651,294.971039 
	C1797.254150,313.619354 1780.442139,332.134857 1760.076416,347.103882 
	C1747.188477,356.576660 1734.180908,365.457825 1719.062256,371.164825 
	C1712.269897,373.728790 1706.237305,378.055511 1699.039795,380.137543 
	C1687.814941,383.384491 1676.308228,385.582214 1665.152710,388.570129 
	C1645.810913,393.750580 1626.413208,392.723663 1607.006104,394.086304 
	C1600.510620,394.542389 1594.811035,397.377258 1591.013794,403.009277 
	C1577.868408,422.506500 1566.240112,442.942139 1553.948120,462.968140 
	C1548.310669,472.152527 1539.319092,478.449585 1531.712280,485.698029 
	C1515.319580,501.318573 1497.893677,516.201294 1475.977173,523.935242 
	C1453.284180,531.943176 1430.712769,534.826355 1406.887085,526.316223 
	C1382.691650,517.674011 1363.474609,504.456451 1351.897095,481.050934 
	C1350.039185,477.294800 1346.994019,473.960876 1342.000000,474.000000 
"/>
<path fill="none" opacity="1.000000" stroke="#000000" stroke-linecap="round" stroke-linejoin="round" stroke-width="2.000000"
	d="
M952.000000,522.000000 
	C952.154602,532.084534 951.731445,541.904480 954.620667,552.107422 
	C960.039490,571.243225 959.471313,591.148499 958.196289,611.012573 
	C957.451843,622.610107 958.849487,634.331604 958.958740,646.000366 
	C959.140076,665.356323 957.694458,684.687988 957.333435,704.006226 
	C956.902527,727.066040 953.931824,750.063049 954.443176,772.990112 
	C955.015442,798.652100 955.358337,824.342896 956.413086,849.983032 
	C956.728149,857.644165 956.904968,865.332458 956.899109,872.999939 
	C956.896606,876.273071 957.727295,877.606079 961.000000,877.000000 
"/>
<path fill="none" opacity="1.000000" stroke="#000000" stroke-linecap="round" stroke-linejoin="round" stroke-width="6.000000"
	d="
M1547.000000,392.000000 
	C1540.745117,419.188507 1522.698853,439.006348 1504.972290,458.975433 
	C1492.631836,472.877136 1478.235352,483.058594 1460.131226,489.375977 
	C1430.147949,499.838470 1395.670654,481.101135 1384.711426,460.150970 
	C1378.800171,448.851135 1375.383179,437.474731 1373.871094,425.015656 
	C1372.291260,411.997498 1379.486450,401.701202 1384.373901,391.173584 
	C1392.697021,373.245636 1404.297974,357.010559 1415.975342,340.982025 
	C1424.355103,329.479645 1427.777832,328.690521 1440.003540,335.994019 
	C1454.066406,344.394928 1466.436157,355.350739 1480.991699,363.015747 
	C1496.968384,371.429138 1512.723511,380.349243 1530.998413,383.010986 
	C1534.857300,383.572998 1538.122559,385.830872 1540.880005,388.143097 
	C1544.916260,391.527679 1548.682617,391.539429 1553.000000,389.500000 
"/>
<path fill="none" opacity="1.000000" stroke="#000000" stroke-linecap="round" stroke-linejoin="round" stroke-width="7.000000"
	d="
M1342.500000,464.000000 
	C1338.163452,484.697968 1328.335693,503.398102 1320.928955,522.973083 
	C1314.950195,538.774109 1307.004272,553.738464 1301.724365,569.910034 
	C1298.522827,579.716370 1292.237793,588.430969 1287.908569,597.958435 
	C1276.926636,622.126892 1265.657104,646.153015 1252.056274,669.033447 
	C1232.769165,701.479736 1211.322021,731.733948 1179.099609,753.149963 
	C1151.262451,771.651611 1115.017822,764.634888 1094.710327,742.262939 
	C1081.192505,727.370850 1072.379028,710.730591 1066.500000,692.000000 
"/>
<path fill="none" opacity="1.000000" stroke="#000000" stroke-linecap="round" stroke-linejoin="round" stroke-width="7.000000"
	d="
M1258.000000,570.000000 
	C1255.627930,579.723572 1249.953003,587.996521 1245.810425,596.911926 
	C1238.461914,612.727173 1232.850464,629.474609 1221.179810,643.153381 
	C1217.052002,647.991333 1211.932983,652.022400 1208.890503,657.943787 
	C1205.075928,665.368286 1197.473389,665.113586 1191.060547,663.721191 
	C1184.187012,662.228760 1178.908203,657.862244 1176.890503,650.028198 
	C1170.629150,625.717529 1165.621826,601.064636 1168.411987,576.045959 
	C1170.085449,561.042114 1172.463745,545.866211 1174.296387,530.913757 
	C1177.277832,506.589325 1185.024902,483.632324 1190.563477,460.132812 
	C1194.330322,444.150421 1199.872070,427.958832 1207.456665,413.235260 
	C1211.718262,404.962646 1211.071655,395.989868 1215.376953,387.677338 
	C1219.704712,379.321625 1224.151123,370.738861 1228.122803,362.056183 
	C1236.321411,344.132324 1249.614258,329.281525 1259.263916,312.148682 
	C1262.605957,306.214874 1268.674316,301.608734 1274.086182,297.103546 
	C1280.233276,291.986328 1287.585693,293.237335 1294.037720,298.957489 
	C1304.030273,307.816589 1307.747925,320.087311 1310.733398,332.066437 
	C1316.447266,354.993591 1319.257324,378.571320 1321.718872,402.029510 
	C1323.967041,423.455383 1315.399902,442.502838 1305.222412,461.121613 
	C1295.999390,477.994324 1289.824463,496.429688 1281.738647,513.878906 
	C1273.314331,532.058716 1267.067017,551.132263 1258.000000,569.000000 
"/>
<path fill="none" opacity="1.000000" stroke="#000000" stroke-linecap="round" stroke-linejoin="round" stroke-width="6.000000"
	d="
M854.000000,1317.000000 
	C857.733704,1320.199829 858.050110,1324.436157 858.051331,1329.000000 
	C858.058167,1354.002930 856.608704,1379.104736 859.173645,1403.982056 
	C865.080994,1461.276733 860.063599,1518.689087 862.118713,1575.995728 
	C863.409729,1611.995239 862.961060,1648.027466 864.324951,1683.987671 
	C865.487976,1714.652954 867.729797,1745.340088 867.643555,1775.999023 
	C867.572327,1801.317749 867.577026,1826.673096 866.939697,1851.998535 
	C865.830322,1896.084473 872.246033,1939.914795 871.102356,1984.002686 
	C870.866089,1993.107300 876.378113,1998.022095 884.916443,2001.222900 
	C894.125061,2004.674805 900.283447,1999.067017 905.759949,1994.698975 
	C915.173645,1987.190430 915.430298,1978.735596 909.000000,1969.000000 
"/>
<path fill="none" opacity="1.000000" stroke="#000000" stroke-linecap="round" stroke-linejoin="round" stroke-width="6.000000"
	d="
M909.000000,1695.000000 
	C902.953979,1694.640381 904.875977,1699.313354 905.118469,1701.989258 
	C906.596436,1718.300293 905.555298,1734.735962 907.900452,1751.014282 
	C909.039612,1758.921875 908.652527,1767.046997 908.744812,1775.002930 
	C909.270813,1820.330200 909.332520,1865.670654 908.787537,1910.997437 
	C908.633667,1923.797119 909.974670,1936.350464 910.915649,1949.006226 
	C911.053650,1950.862427 911.799683,1951.933472 913.000000,1953.000000 
"/>
<path fill="none" opacity="1.000000" stroke="#000000" stroke-linecap="round" stroke-linejoin="round" stroke-width="6.000000"
	d="
M1047.000000,312.000000 
	C1058.643799,317.260437 1058.757202,329.335022 1063.028687,338.987274 
	C1069.804443,354.297760 1070.047485,371.112854 1073.363892,387.131683 
	C1076.341309,401.513184 1074.225464,417.017944 1073.008179,432.000671 
	C1071.430054,451.426453 1068.116699,470.665466 1065.448242,489.923553 
	C1063.977417,500.538574 1061.462036,511.462921 1060.498779,522.045410 
	C1058.509521,543.894653 1059.694702,566.012878 1058.912720,587.996887 
	C1057.827026,618.512939 1061.949829,648.687683 1063.993530,679.000427 
	C1064.214233,682.272949 1066.011108,685.020935 1066.860107,688.039368 
	C1067.629028,690.772827 1065.360107,691.369080 1063.000000,691.000000 
"/>
<path fill="none" opacity="1.000000" stroke="#000000" stroke-linecap="round" stroke-linejoin="round" stroke-width="5.000000"
	d="
M994.000000,739.000000 
	C994.000000,748.000000 993.130859,757.101624 994.168823,765.980286 
	C996.890686,789.264160 997.266724,812.678467 997.664001,836.005737 
	C998.032410,857.632080 996.242554,879.363892 997.210449,900.990601 
	C998.284485,924.990356 996.856384,949.135437 1000.301453,972.956421 
	C1001.210999,979.245239 999.827209,985.267395 999.377014,990.950623 
	C997.935486,1009.147400 1000.217468,1027.006348 1000.928101,1045.002808 
	C1001.085266,1048.983521 1000.333435,1053.000000 1000.000061,1057.000000 
"/>
<path fill="none" opacity="1.000000" stroke="#000000" stroke-linecap="round" stroke-linejoin="round" stroke-width="6.000000"
	d="
M613.000000,285.000000 
	C626.644043,291.433655 633.398926,302.489899 637.349487,316.904205 
	C640.715515,329.185760 639.396667,341.948303 643.673828,354.114685 
	C646.436584,361.973389 641.787964,370.507019 641.802124,379.000336 
	C641.851685,408.664703 635.247070,438.405731 641.196228,467.960510 
	C646.572754,494.670715 662.187988,513.736511 687.975281,524.061768 
	C703.966492,530.464600 718.146729,528.478821 732.202271,518.278748 
	C738.038818,514.043274 744.687988,510.052734 751.997986,507.992828 
	C758.034058,506.291931 759.065186,500.579376 761.500000,496.000000 
"/>
<path fill="none" opacity="1.000000" stroke="#000000" stroke-linecap="round" stroke-linejoin="round" stroke-width="6.000000"
	d="
M1004.000000,1315.000000 
	C1000.266296,1318.199829 998.694214,1322.779907 1000.199463,1326.927612 
	C1003.224304,1335.262207 1001.709229,1343.655518 1001.930054,1352.001831 
	C1002.476562,1372.662842 1003.609436,1393.369995 1002.807617,1413.992554 
	C1001.028320,1459.757568 1005.222534,1505.333374 1006.424500,1550.988770 
	C1007.110596,1577.050537 1005.455994,1603.069458 1006.591797,1628.973999 
	C1007.276733,1644.596558 1007.993164,1660.347412 1009.222168,1675.982544 
	C1010.956909,1698.051514 1008.821716,1720.000610 1008.804749,1741.999878 
	C1008.783875,1769.037720 1010.888123,1795.988647 1011.596985,1822.984375 
	C1011.980774,1837.599487 1010.663147,1852.652344 1013.399170,1866.923462 
	C1017.260986,1887.066650 1013.110718,1906.983765 1014.248962,1927.042603 
	C1015.201843,1943.835083 1015.727844,1960.989014 1015.095703,1978.003540 
	C1014.613708,1990.976196 1011.664795,1996.231445 1000.999939,1999.999756 
	C994.101624,2002.437378 982.755127,1997.622192 976.978210,1990.016479 
	C971.602478,1982.939209 971.476624,1976.000000 977.000000,1969.000000 
"/>
<path fill="none" opacity="1.000000" stroke="#000000" stroke-linecap="round" stroke-linejoin="round" stroke-width="7.000000"
	d="
M1176.000000,706.000000 
	C1165.069824,729.366760 1129.785156,727.240540 1117.564819,707.266235 
	C1106.866821,689.779968 1103.320068,671.843506 1102.600464,652.014526 
	C1102.216309,641.428955 1099.749146,630.757385 1098.492554,620.059631 
	C1096.149048,600.110046 1100.310669,580.628052 1099.673950,561.010559 
	C1099.189331,546.077332 1105.559082,531.989197 1103.103516,516.983032 
	C1100.938965,503.755920 1106.158813,491.067505 1107.128540,478.009552 
	C1108.997803,452.840393 1115.383057,428.293182 1117.277344,403.020782 
	C1119.675781,371.023193 1124.649170,339.064850 1123.549683,307.015442 
	C1122.669556,281.365967 1123.252441,255.525848 1119.069214,229.988663 
	C1113.835083,198.036362 1106.619629,166.787247 1088.957764,139.026855 
	C1078.560913,122.685371 1064.761719,108.806145 1047.710938,100.600739 
	C1034.018066,94.011276 1018.723206,88.721863 1001.869568,93.544189 
	C993.706238,95.879936 984.618408,94.846840 975.898682,97.689209 
	C962.313965,102.117447 948.601562,107.358871 938.376282,116.424393 
	C919.100220,133.514130 901.760315,152.880402 888.013062,175.008118 
	C875.397217,195.314682 861.585144,215.180832 852.448730,237.186310 
	C844.251770,256.928955 834.153198,275.833282 827.000000,296.000000 
"/>
<path fill="none" opacity="1.000000" stroke="#000000" stroke-linecap="round" stroke-linejoin="round" stroke-width="8.000000"
	d="
M1007.000000,230.000000 
	C1010.813110,222.606934 1009.023987,214.636673 1008.819763,207.004822 
	C1008.489258,194.653580 1008.509949,181.957031 1005.557495,170.110291 
	C1002.834045,159.182327 997.583496,148.418076 987.981812,141.023590 
	C984.290527,138.180847 979.999573,137.797012 976.041931,140.072876 
	C969.553894,143.803833 962.585693,147.178848 957.131653,152.144638 
	C935.526794,171.815018 919.674561,196.000854 905.014099,221.008255 
	C899.571838,230.291489 893.671570,239.376022 891.021484,250.005356 
	C890.502869,252.085327 891.257141,254.068253 892.000000,256.000000 
"/>
<path fill="none" opacity="1.000000" stroke="#000000" stroke-linecap="round" stroke-linejoin="round" stroke-width="6.000000"
	d="
M834.000000,528.000000 
	C834.000000,546.000000 831.737793,564.367371 834.585876,581.904846 
	C837.969543,602.740112 836.861816,623.351440 836.704773,643.997742 
	C836.542236,665.369690 837.927612,686.669800 838.359436,707.992737 
	C839.034790,741.336548 838.309875,774.673279 839.058777,807.998657 
	C840.152832,856.682312 845.256287,905.266235 843.799316,953.994019 
	C842.977783,981.468018 847.042236,1008.637634 846.855347,1035.999023 
	C846.807495,1043.005615 844.553955,1050.000000 847.000000,1057.000000 
"/>
<path fill="none" opacity="1.000000" stroke="#000000" stroke-linecap="round" stroke-linejoin="round" stroke-width="6.000000"
	d="
M607.500000,275.000000 
	C614.268005,282.912628 610.407715,292.407379 610.677734,301.010132 
	C611.158081,316.307434 610.586121,331.778198 608.743286,346.968842 
	C606.873779,362.379669 606.157654,377.905792 601.541748,393.163879 
	C598.567932,402.994049 599.451599,414.357819 599.196899,425.004700 
	C598.596619,450.102051 594.175903,474.931793 594.139404,500.000214 
	C594.105286,523.407532 595.330872,546.859131 599.157715,569.973877 
	C602.529114,590.337280 608.181030,610.485657 617.427307,628.784058 
	C625.976318,645.702454 640.296875,659.165344 660.956604,657.470642 
	C674.463928,656.362671 687.773254,652.661743 697.393677,639.283081 
	C713.780396,616.494873 724.258972,591.056824 736.447021,566.219360 
	C743.538147,551.768799 746.999451,536.126038 754.363953,521.929443 
	C756.351746,518.097412 754.871582,513.334778 755.000000,509.000000 
"/>
<path fill="none" opacity="1.000000" stroke="#000000" stroke-linecap="round" stroke-linejoin="round" stroke-width="6.000000"
	d="
M1352.500000,372.000000 
	C1354.914185,362.263550 1359.859863,354.261902 1366.829956,346.840271 
	C1377.888672,335.065063 1385.903687,320.946869 1394.018066,307.010529 
	C1397.451538,301.113647 1396.417969,296.896118 1390.017700,293.961304 
	C1382.528320,290.527069 1376.874390,284.314423 1370.301392,279.581421 
	C1358.089478,270.788025 1344.664673,265.308563 1330.956787,260.113983 
	C1325.301025,257.970764 1319.046875,256.065002 1314.000000,262.000000 
"/>
<path fill="none" opacity="1.000000" stroke="#000000" stroke-linecap="round" stroke-linejoin="round" stroke-width="6.000000"
	d="
M1423.000000,268.000000 
	C1417.062256,264.021088 1411.087158,260.208099 1405.930054,255.070190 
	C1388.291870,237.497559 1366.265015,227.168060 1342.864624,220.473129 
	C1334.711548,218.140518 1324.491943,217.827301 1316.112915,222.215546 
	C1311.391724,224.688110 1306.397583,223.119385 1302.027100,225.060959 
	C1283.778564,233.167877 1265.617188,240.365707 1252.522827,257.638245 
	C1241.692017,271.925018 1228.315552,284.508331 1219.156860,300.092194 
	C1206.844482,321.041962 1195.951050,342.762390 1185.778687,364.898285 
	C1175.321289,387.654419 1167.966797,411.404663 1159.321533,434.748749 
	C1153.785889,449.696228 1150.316528,464.686859 1146.847656,479.965393 
	C1145.437866,486.175110 1142.333374,492.000031 1140.000000,498.000031 
"/>
<path fill="none" opacity="1.000000" stroke="#000000" stroke-linecap="round" stroke-linejoin="round" stroke-width="8.000000"
	d="
M1042.000000,291.000000 
	C1042.000000,291.333344 1041.921631,291.689514 1042.011353,291.996704 
	C1045.869507,305.215027 1043.370483,317.529602 1038.212769,330.087402 
	C1033.158447,342.393524 1029.325439,355.041656 1023.433594,367.209930 
	C1011.577515,391.696442 996.301453,413.760956 981.276978,436.185608 
	C976.036926,444.006622 970.675720,452.018890 966.734802,460.882080 
	C963.798218,467.486755 959.715637,474.028168 952.029785,477.075073 
	C942.653015,480.792267 942.799866,490.160248 940.500000,498.000000 
"/>
<path fill="none" opacity="1.000000" stroke="#000000" stroke-linecap="round" stroke-linejoin="round" stroke-width="5.000000"
	d="
M993.000061,519.000000 
	C992.666687,539.000000 993.381653,559.088440 991.704407,578.975037 
	C990.036133,598.755554 991.198425,618.555847 992.779175,637.936462 
	C994.312500,656.736877 992.152771,675.382568 994.042847,693.995667 
	C995.073914,704.149109 990.948486,713.853149 991.913025,724.008240 
	C992.372986,728.850952 992.122620,733.739014 995.028870,737.980225 
	C995.135315,738.135681 995.736511,738.118591 995.984009,737.972839 
	C996.377258,737.741333 996.666626,737.333252 996.999939,736.999939 
"/>
<path fill="none" opacity="1.000000" stroke="#000000" stroke-linecap="round" stroke-linejoin="round" stroke-width="10.000000"
	d="
M1235.000000,1193.000000 
	C1235.084717,1197.120728 1234.735840,1200.778931 1238.818604,1204.215454 
	C1244.536987,1209.028564 1248.925293,1215.401367 1254.015747,1220.985718 
	C1264.333618,1232.304810 1276.932861,1236.036255 1292.023682,1233.122314 
	C1302.233521,1231.150757 1312.358643,1227.946533 1323.000000,1229.000000 
"/>
<path fill="none" opacity="1.000000" stroke="#000000" stroke-linecap="round" stroke-linejoin="round" stroke-width="7.000000"
	d="
M1055.000000,201.000000 
	C1052.848145,200.908646 1050.410034,201.353271 1051.098022,203.974258 
	C1054.328735,216.281219 1048.237427,228.790451 1052.029297,240.990891 
	C1056.249390,254.569290 1063.308960,265.734558 1078.000000,270.000000 
"/>
<path fill="none" opacity="1.000000" stroke="#000000" stroke-linecap="round" stroke-linejoin="round" stroke-width="6.000000"
	d="
M961.000000,1497.000000 
	C966.156799,1495.176514 966.112671,1498.626587 965.985840,1501.999512 
	C965.697388,1509.667725 964.971252,1517.337769 965.065430,1524.999146 
	C965.397339,1552.001221 966.769714,1579.012695 966.322876,1605.997070 
	C965.620667,1648.411255 971.171021,1690.744263 969.254761,1732.966187 
	C968.141907,1757.485474 970.359558,1781.663818 970.302612,1806.000732 
	C970.227661,1837.992920 971.423462,1870.103271 973.777832,1901.942505 
	C975.107788,1919.927979 973.266479,1937.331909 973.131409,1955.000977 
	C973.095947,1959.636841 971.088318,1964.796875 975.000000,1969.000000 
"/>
<path fill="none" opacity="1.000000" stroke="#000000" stroke-linecap="round" stroke-linejoin="round" stroke-width="8.000000"
	d="
M1008.500000,233.000000 
	C1007.563904,229.865952 1005.109741,230.158524 1003.026489,231.061142 
	C995.428162,234.353256 987.526062,233.991440 980.047546,231.835144 
	C967.764038,228.293427 956.354431,232.962006 945.084229,235.390884 
	C926.789429,239.333633 911.140686,250.676239 893.279175,256.812592 
	C882.593140,260.483795 875.570618,272.849976 872.000000,285.000000 
"/>
<path fill="none" opacity="1.000000" stroke="#000000" stroke-linecap="round" stroke-linejoin="round" stroke-width="6.000000"
	d="
M1299.000000,261.000000 
	C1305.998291,260.099426 1311.979004,259.465179 1316.393433,267.791412 
	C1319.527954,273.703522 1326.326904,277.751129 1331.378052,282.606659 
	C1344.363525,295.089050 1346.423828,311.193024 1349.910889,327.019623 
	C1352.010010,336.546783 1352.896851,346.362793 1358.000000,355.000000 
"/>
<path fill="none" opacity="1.000000" stroke="#000000" stroke-linecap="round" stroke-linejoin="round" stroke-width="3.000000"
	d="
M1423.000000,1611.000000 
	C1426.440796,1623.021240 1432.386230,1634.014771 1438.359253,1644.801025 
	C1440.555420,1648.767212 1440.643066,1652.157959 1441.000000,1656.000000 
"/>
<path fill="none" opacity="1.000000" stroke="#000000" stroke-linecap="round" stroke-linejoin="round" stroke-width="6.000000"
	d="
M1137.000000,497.500000 
	C1143.901245,503.147644 1139.498291,510.510101 1138.085815,515.891296 
	C1132.800781,536.027466 1131.728882,556.815002 1127.537476,577.110962 
	C1125.755371,585.740173 1127.041016,595.775513 1128.271729,604.963623 
	C1129.302612,612.660767 1130.646729,620.347717 1129.855835,627.985046 
	C1128.331299,642.707642 1133.163574,655.889648 1140.382080,667.767822 
	C1144.393066,674.367920 1145.348877,682.856750 1151.170532,687.799194 
	C1158.809082,694.284241 1167.578247,699.473083 1176.090576,704.856689 
	C1177.443970,705.712585 1180.000000,704.666626 1182.000000,704.500000 
"/>
<path fill="none" opacity="1.000000" stroke="#000000" stroke-linecap="round" stroke-linejoin="round" stroke-width="8.000000"
	d="
M871.000000,505.000000 
	C871.005188,521.027588 880.667725,536.785522 872.871704,552.938049 
	C869.879883,559.136719 873.044922,566.237549 869.000000,572.000000 
"/>
<path fill="none" opacity="1.000000" stroke="#000000" stroke-linecap="round" stroke-linejoin="round" stroke-width="2.000000"
	d="
M856.000000,1413.000000 
	C853.707092,1424.945557 855.623108,1437.008057 855.000000,1449.000000 
"/>
<path fill="none" opacity="1.000000" stroke="#000000" stroke-linecap="round" stroke-linejoin="round" stroke-width="4.000000"
	d="
M985.000000,2053.000000 
	C995.666687,2056.546143 1006.333313,2055.643311 1017.000000,2053.000000 
"/>
<path fill="none" opacity="1.000000" stroke="#000000" stroke-linecap="round" stroke-linejoin="round" stroke-width="2.000000"
	d="
M872.000000,520.000000 
	C869.666687,519.333374 866.664368,519.365417 865.113892,517.881042 
	C857.768799,510.849060 850.058838,512.157043 842.000000,516.000000 
"/>
<path fill="none" opacity="1.000000" stroke="#000000" stroke-linecap="round" stroke-linejoin="round" stroke-width="8.000000"
	d="
M1066.500000,188.000000 
	C1069.303833,199.851730 1073.771851,211.097183 1072.516724,224.050079 
	C1071.735352,232.113861 1075.990112,240.669067 1078.030396,248.992538 
	C1078.126343,249.384064 1078.912231,249.632202 1078.964600,250.004944 
	C1080.974854,264.336823 1079.172852,279.184723 1084.864624,293.055573 
	C1085.236816,293.962616 1083.666626,295.666656 1083.000000,297.000000 
"/>
<path fill="none" opacity="1.000000" stroke="#000000" stroke-linecap="round" stroke-linejoin="round" stroke-width="2.000000"
	d="
M998.000000,754.000000 
	C1003.422058,756.006714 1000.771790,760.665039 1000.819885,764.002625 
	C1000.901245,769.645630 1002.228577,775.444824 1000.000000,781.000000 
"/>
<path fill="none" opacity="1.000000" stroke="#000000" stroke-linecap="round" stroke-linejoin="round" stroke-width="6.000000"
	d="
M1035.000000,134.999985 
	C1037.000000,138.666656 1038.599487,142.632141 1041.071899,145.946335 
	C1049.968994,157.872101 1044.256836,172.209427 1047.776489,185.061218 
	C1049.220703,190.334595 1049.701172,195.908035 1052.000000,201.000000 
"/>
<path fill="none" opacity="1.000000" stroke="#000000" stroke-linecap="round" stroke-linejoin="round" stroke-width="2.000000"
	d="
M827.000000,521.000000 
	C827.633118,529.655151 825.716370,538.408325 828.000000,547.000000 
"/>
<path fill="none" opacity="1.000000" stroke="#000000" stroke-linecap="round" stroke-linejoin="round" stroke-width="5.000000"
	d="
M1048.000000,160.000000 
	C1059.436523,163.412033 1061.447998,174.237823 1065.871094,183.064606 
	C1066.627808,184.574677 1067.072266,187.970856 1063.000000,187.000000 
"/>
<path fill="none" opacity="1.000000" stroke="#000000" stroke-linecap="round" stroke-linejoin="round" stroke-width="3.000000"
	d="
M507.000000,237.000000 
	C500.574921,235.449539 494.989746,238.938553 489.000000,240.000000 
"/>
<path fill="none" opacity="1.000000" stroke="#000000" stroke-linecap="round" stroke-linejoin="round" stroke-width="2.000000"
	d="
M964.000000,479.000000 
	C968.280640,486.224060 975.311951,481.757660 981.000000,483.000000 
"/>
<path fill="none" opacity="1.000000" stroke="#000000" stroke-linecap="round" stroke-linejoin="round" stroke-width="2.000000"
	d="
M999.000000,723.000000 
	C998.532776,726.988831 1000.098450,731.147095 998.000000,735.000000 
"/>
<path fill="none" opacity="1.000000" stroke="#000000" stroke-linecap="round" stroke-linejoin="round" stroke-width="2.000000"
	d="
M969.000000,517.000000 
	C965.011169,517.467224 960.852905,515.901550 957.000000,518.000000 
"/>
<path fill="none" opacity="1.000000" stroke="#000000" stroke-linecap="round" stroke-linejoin="round" stroke-width="3.000000"
	d="
M1611.000000,353.000000 
	C1607.828613,356.655426 1603.210571,356.838684 1599.000000,358.000000 
"/>
<path fill="none" opacity="1.000000" stroke="#000000" stroke-linecap="round" stroke-linejoin="round" stroke-width="2.000000"
	d="
M1058.000000,644.000000 
	C1052.393433,646.410339 1056.071777,651.352905 1055.000000,655.000000 
"/>
<path fill="none" opacity="1.000000" stroke="#000000" stroke-linecap="round" stroke-linejoin="round" stroke-width="2.000000"
	d="
M840.000000,498.000000 
	C837.350525,501.350525 836.079407,506.079407 831.000000,507.000000 
"/>
<path fill="none" opacity="1.000000" stroke="#000000" stroke-linecap="round" stroke-linejoin="round" stroke-width="1.000000"
	d="
M1062.000000,178.000000 
	C1058.291870,178.396454 1055.269897,180.508011 1052.000000,182.000000 
"/>
<path fill="none" opacity="1.000000" stroke="#000000" stroke-linecap="round" stroke-linejoin="round" stroke-width="2.000000"
	d="
M1163.000000,1173.000000 
	C1161.242798,1176.576172 1158.576172,1179.242798 1155.000000,1181.000000 
"/>
<path fill="none" opacity="1.000000" stroke="#000000" stroke-linecap="round" stroke-linejoin="round" stroke-width="2.000000"
	d="
M823.000000,1183.000000 
	C820.128662,1184.491577 817.025024,1183.891846 814.000000,1184.000000 
"/>
<path fill="none" opacity="1.000000" stroke="#000000" stroke-linecap="round" stroke-linejoin="round" stroke-width="2.000000"
	d="
M999.000000,541.000000 
	C998.463562,543.641296 1000.116028,546.556152 998.000000,549.000000 
"/>
<path fill="none" opacity="1.000000" stroke="#000000" stroke-linecap="round" stroke-linejoin="round" stroke-width="2.000000"
	d="
M1013.000000,1631.000000 
	C1012.463562,1633.641235 1014.116028,1636.556152 1012.000000,1639.000000 
"/>
<path fill="none" opacity="1.000000" stroke="#000000" stroke-linecap="round" stroke-linejoin="round" stroke-width="2.000000"
	d="
M1003.000000,805.000000 
	C1003.000000,807.666687 1003.000000,810.333313 1003.000000,813.000000 
"/>
<path fill="none" opacity="1.000000" stroke="#000000" stroke-linecap="round" stroke-linejoin="round" stroke-width="2.000000"
	d="
M952.000000,909.000000 
	C949.883972,911.443848 951.536438,914.358704 951.000000,917.000000 
"/>
<path fill="none" opacity="1.000000" stroke="#000000" stroke-linecap="round" stroke-linejoin="round" stroke-width="2.000000"
	d="
M954.000000,955.000000 
	C951.883972,957.443848 953.536438,960.358704 953.000000,963.000000 
"/>
<path fill="none" opacity="1.000000" stroke="#000000" stroke-linecap="round" stroke-linejoin="round" stroke-width="2.000000"
	d="
M1000.000000,167.000000 
	C997.883972,169.443832 999.536438,172.358719 999.000000,175.000000 
"/>
<path fill="none" opacity="1.000000" stroke="#000000" stroke-linecap="round" stroke-linejoin="round" stroke-width="2.000000"
	d="
M911.000000,1591.000000 
	C908.666687,1591.000000 906.333313,1591.000000 904.000000,1591.000000 
"/>
<path fill="none" opacity="1.000000" stroke="#000000" stroke-linecap="round" stroke-linejoin="round" stroke-width="2.000000"
	d="
M911.000000,1587.000000 
	C908.666687,1587.000000 906.333313,1587.000000 904.000000,1587.000000 
"/>
<path fill="none" opacity="1.000000" stroke="#000000" stroke-linecap="round" stroke-linejoin="round" stroke-width="2.000000"
	d="
M907.000000,1487.000000 
	C906.123657,1482.962402 902.948547,1485.821045 901.000000,1485.000000 
"/>
<path fill="none" opacity="1.000000" stroke="#000000" stroke-linecap="round" stroke-linejoin="round" stroke-width="2.000000"
	d="
M907.000000,1477.000000 
	C906.123657,1481.037598 902.948547,1478.178955 901.000000,1479.000000 
"/>
<path fill="none" opacity="1.000000" stroke="#000000" stroke-linecap="round" stroke-linejoin="round" stroke-width="2.000000"
	d="
M855.000000,1477.000000 
	C855.876343,1481.037598 859.051453,1478.178955 861.000000,1479.000000 
"/>
<path fill="none" opacity="1.000000" stroke="#000000" stroke-linecap="round" stroke-linejoin="round" stroke-width="2.000000"
	d="
M861.000000,1459.000000 
	C859.051453,1459.821045 855.876343,1456.962402 855.000000,1461.000000 
"/>
<path fill="none" opacity="1.000000" stroke="#000000" stroke-linecap="round" stroke-linejoin="round" stroke-width="2.000000"
	d="
M1500.000000,630.000000 
	C1505.278076,631.573975 1502.205811,635.931396 1503.000000,639.000000 
"/>
<path fill="none" opacity="1.000000" stroke="#000000" stroke-linecap="round" stroke-linejoin="round" stroke-width="2.000000"
	d="
M330.000000,654.000000 
	C324.721985,655.573975 327.794220,659.931396 327.000000,663.000000 
"/>
</svg>